<svg id="visual" viewBox="0 0 900 900" width="900" height="900" xmlns="http://www.w3.org/2000/svg" xmlns:xlink="http://www.w3.org/1999/xlink" version="1.1"><rect x="0" y="0" width="900" height="900" fill="#0c0c0c"></rect><defs><linearGradient id="grad1_0" x1="0%" y1="0%" x2="100%" y2="100%"><stop offset="30%" stop-color="#252525" stop-opacity="1"></stop><stop offset="70%" stop-color="#252525" stop-opacity="1"></stop></linearGradient></defs><defs><linearGradient id="grad1_1" x1="0%" y1="0%" x2="100%" y2="100%"><stop offset="30%" stop-color="#252525" stop-opacity="1"></stop><stop offset="70%" stop-color="#222222" stop-opacity="1"></stop></linearGradient></defs><defs><linearGradient id="grad1_2" x1="0%" y1="0%" x2="100%" y2="100%"><stop offset="30%" stop-color="#1e1e1e" stop-opacity="1"></stop><stop offset="70%" stop-color="#222222" stop-opacity="1"></stop></linearGradient></defs><defs><linearGradient id="grad1_3" x1="0%" y1="0%" x2="100%" y2="100%"><stop offset="30%" stop-color="#1e1e1e" stop-opacity="1"></stop><stop offset="70%" stop-color="#1b1b1b" stop-opacity="1"></stop></linearGradient></defs><defs><linearGradient id="grad1_4" x1="0%" y1="0%" x2="100%" y2="100%"><stop offset="30%" stop-color="#181818" stop-opacity="1"></stop><stop offset="70%" stop-color="#1b1b1b" stop-opacity="1"></stop></linearGradient></defs><defs><linearGradient id="grad1_5" x1="0%" y1="0%" x2="100%" y2="100%"><stop offset="30%" stop-color="#181818" stop-opacity="1"></stop><stop offset="70%" stop-color="#151515" stop-opacity="1"></stop></linearGradient></defs><defs><linearGradient id="grad1_6" x1="0%" y1="0%" x2="100%" y2="100%"><stop offset="30%" stop-color="#111111" stop-opacity="1"></stop><stop offset="70%" stop-color="#151515" stop-opacity="1"></stop></linearGradient></defs><defs><linearGradient id="grad1_7" x1="0%" y1="0%" x2="100%" y2="100%"><stop offset="30%" stop-color="#111111" stop-opacity="1"></stop><stop offset="70%" stop-color="#0c0c0c" stop-opacity="1"></stop></linearGradient></defs><defs><linearGradient id="grad2_0" x1="0%" y1="0%" x2="100%" y2="100%"><stop offset="30%" stop-color="#252525" stop-opacity="1"></stop><stop offset="70%" stop-color="#252525" stop-opacity="1"></stop></linearGradient></defs><defs><linearGradient id="grad2_1" x1="0%" y1="0%" x2="100%" y2="100%"><stop offset="30%" stop-color="#222222" stop-opacity="1"></stop><stop offset="70%" stop-color="#252525" stop-opacity="1"></stop></linearGradient></defs><defs><linearGradient id="grad2_2" x1="0%" y1="0%" x2="100%" y2="100%"><stop offset="30%" stop-color="#222222" stop-opacity="1"></stop><stop offset="70%" stop-color="#1e1e1e" stop-opacity="1"></stop></linearGradient></defs><defs><linearGradient id="grad2_3" x1="0%" y1="0%" x2="100%" y2="100%"><stop offset="30%" stop-color="#1b1b1b" stop-opacity="1"></stop><stop offset="70%" stop-color="#1e1e1e" stop-opacity="1"></stop></linearGradient></defs><defs><linearGradient id="grad2_4" x1="0%" y1="0%" x2="100%" y2="100%"><stop offset="30%" stop-color="#1b1b1b" stop-opacity="1"></stop><stop offset="70%" stop-color="#181818" stop-opacity="1"></stop></linearGradient></defs><defs><linearGradient id="grad2_5" x1="0%" y1="0%" x2="100%" y2="100%"><stop offset="30%" stop-color="#151515" stop-opacity="1"></stop><stop offset="70%" stop-color="#181818" stop-opacity="1"></stop></linearGradient></defs><defs><linearGradient id="grad2_6" x1="0%" y1="0%" x2="100%" y2="100%"><stop offset="30%" stop-color="#151515" stop-opacity="1"></stop><stop offset="70%" stop-color="#111111" stop-opacity="1"></stop></linearGradient></defs><defs><linearGradient id="grad2_7" x1="0%" y1="0%" x2="100%" y2="100%"><stop offset="30%" stop-color="#0c0c0c" stop-opacity="1"></stop><stop offset="70%" stop-color="#111111" stop-opacity="1"></stop></linearGradient></defs><g transform="translate(900, 0)"><path d="M0 572.8C-106.5 561.4 -212.9 550.1 -286.4 496C-359.8 442 -400.3 345.3 -442.5 255.5C-484.8 165.7 -528.8 82.9 -572.8 0L0 0Z" fill="#0e0e0e"></path><path d="M0 501.2C-93.2 491.2 -186.3 481.3 -250.6 434C-314.9 386.7 -350.3 302.1 -387.2 223.6C-424.2 145 -462.7 72.5 -501.2 0L0 0Z" fill="#131313"></path><path d="M0 429.6C-79.8 421.1 -159.7 412.5 -214.8 372C-269.9 331.5 -300.2 259 -331.9 191.6C-363.6 124.3 -396.6 62.1 -429.6 0L0 0Z" fill="#161616"></path><path d="M0 358C-66.5 350.9 -133.1 343.8 -179 310C-224.9 276.2 -250.2 215.8 -276.6 159.7C-303 103.6 -330.5 51.8 -358 0L0 0Z" fill="#191919"></path><path d="M0 286.4C-53.2 280.7 -106.5 275 -143.2 248C-179.9 221 -200.2 172.6 -221.3 127.8C-242.4 82.9 -264.4 41.4 -286.4 0L0 0Z" fill="#1d1d1d"></path><path d="M0 214.8C-39.9 210.5 -79.8 206.3 -107.4 186C-134.9 165.7 -150.1 129.5 -166 95.8C-181.8 62.1 -198.3 31.1 -214.8 0L0 0Z" fill="#202020"></path><path d="M0 143.2C-26.6 140.4 -53.2 137.5 -71.6 124C-90 110.5 -100.1 86.3 -110.6 63.9C-121.2 41.4 -132.2 20.7 -143.2 0L0 0Z" fill="#232323"></path><path d="M0 71.6C-13.3 70.2 -26.6 68.8 -35.8 62C-45 55.2 -50 43.2 -55.3 31.9C-60.6 20.7 -66.1 10.4 -71.6 0L0 0Z" fill="#252525"></path></g><g transform="translate(0, 900)"><path d="M0 -572.8C88.7 -538.9 177.5 -505.1 266.5 -461.6C355.5 -418.1 444.9 -364.9 496 -286.4C547.1 -207.8 559.9 -103.9 572.8 0L0 0Z" fill="#0e0e0e"></path><path d="M0 -501.2C77.6 -471.6 155.3 -442 233.2 -403.9C311.1 -365.8 389.3 -319.3 434 -250.6C478.7 -181.9 489.9 -90.9 501.2 0L0 0Z" fill="#131313"></path><path d="M0 -429.6C66.5 -404.2 133.1 -378.8 199.9 -346.2C266.7 -313.6 333.7 -273.7 372 -214.8C410.3 -155.9 420 -77.9 429.6 0L0 0Z" fill="#161616"></path><path d="M0 -358C55.5 -336.8 110.9 -315.7 166.6 -288.5C222.2 -261.3 278.1 -228.1 310 -179C341.9 -129.9 350 -64.9 358 0L0 0Z" fill="#191919"></path><path d="M0 -286.4C44.4 -269.5 88.7 -252.5 133.2 -230.8C177.8 -209 222.5 -182.5 248 -143.2C273.6 -103.9 280 -52 286.4 0L0 0Z" fill="#1d1d1d"></path><path d="M0 -214.8C33.3 -202.1 66.5 -189.4 99.9 -173.1C133.3 -156.8 166.8 -136.8 186 -107.4C205.2 -77.9 210 -39 214.8 0L0 0Z" fill="#202020"></path><path d="M0 -143.2C22.2 -134.7 44.4 -126.3 66.6 -115.4C88.9 -104.5 111.2 -91.2 124 -71.6C136.8 -52 140 -26 143.2 0L0 0Z" fill="#232323"></path><path d="M0 -71.6C11.1 -67.4 22.2 -63.1 33.3 -57.7C44.4 -52.3 55.6 -45.6 62 -35.8C68.4 -26 70 -13 71.6 0L0 0Z" fill="#252525"></path></g></svg>